<?xml version="1.0" encoding="UTF-8"?>
<svg width="700pt" height="700pt" version="1.1" viewBox="0 0 700 700" xmlns="http://www.w3.org/2000/svg">
 <g fill-rule="evenodd">
  <path d="m105 112h490c3.8672 0 7-3.1328 7-7s-3.1328-7-7-7h-490c-3.8672 0-7 3.1328-7 7s3.1328 7 7 7z"/>
  <path d="m595 273h-490c-3.8672 0-7 3.1328-7 7s3.1328 7 7 7h490c3.8672 0 7-3.1328 7-7s-3.1328-7-7-7z"/>
  <path d="m595 185.5h-490c-3.8672 0-7 3.1328-7 7s3.1328 7 7 7h490c3.8672 0 7-3.1328 7-7s-3.1328-7-7-7z"/>
  <path d="m595 360.5h-490c-3.8672 0-7 3.1328-7 7s3.1328 7 7 7h490c3.8672 0 7-3.1328 7-7s-3.1328-7-7-7z"/>
  <path d="m595 448h-490c-3.8672 0-7 3.1328-7 7s3.1328 7 7 7h490c3.8672 0 7-3.1328 7-7s-3.1328-7-7-7z"/>
 </g>
</svg>
